<?xml version="1.0" standalone="no"?>
<!DOCTYPE svg PUBLIC "-//W3C//DTD SVG 20010904//EN"
 "http://www.w3.org/TR/2001/REC-SVG-20010904/DTD/svg10.dtd">
<svg version="1.0" xmlns="http://www.w3.org/2000/svg"
 width="1600.000000pt" height="1600.000000pt" viewBox="0 0 1600.000000 1600.000000"
 preserveAspectRatio="xMidYMid meet">

<g transform="translate(0.000000,1600.000000) scale(0.100000,-0.100000)"
fill="#000000" stroke="none">
<path d="M7680 14671 c0 -5 13 -12 30 -16 16 -3 43 -22 60 -41 l30 -35 0 -277
c0 -152 -5 -295 -10 -317 -11 -47 -41 -75 -81 -75 -16 0 -29 -4 -29 -10 0 -6
54 -10 141 -10 91 0 138 4 134 10 -3 6 -15 10 -26 10 -40 0 -78 29 -88 68 -12
42 -15 542 -3 542 4 0 126 -146 271 -325 145 -179 267 -325 272 -325 5 0 9
153 9 355 0 398 1 404 65 425 64 21 37 30 -90 30 -120 0 -162 -11 -91 -24 68
-13 71 -23 74 -260 2 -170 0 -208 -10 -195 -7 8 -96 120 -197 247 l-184 232
-139 0 c-77 0 -138 -4 -138 -9z"/>
<path d="M7961 13633 c-1 -17 -87 -731 -106 -878 -8 -66 -15 -125 -15 -131 0
-8 -34 -14 -92 -18 -418 -30 -717 -78 -1025 -166 -739 -210 -1343 -549 -1921
-1080 l-119 -109 -97 91 c-53 50 -99 89 -101 86 -2 -2 38 -46 90 -98 l94 -94
-82 -89 c-338 -369 -580 -720 -782 -1132 -269 -551 -435 -1181 -462 -1757 -3
-75 -9 -141 -12 -146 -3 -5 -238 -37 -521 -71 -283 -34 -516 -63 -517 -65 -1
-1 64 -10 145 -20 416 -49 878 -107 890 -111 8 -3 12 -29 12 -82 0 -233 63
-649 146 -968 190 -731 577 -1431 1089 -1975 44 -47 89 -95 99 -108 l20 -23
-99 -99 c-55 -55 -93 -100 -85 -100 8 0 56 43 106 97 l91 97 94 -89 c328 -312
738 -594 1156 -795 535 -257 1164 -420 1725 -447 75 -3 141 -9 147 -12 5 -3
16 -62 25 -131 19 -149 80 -653 97 -798 7 -56 14 -100 16 -98 2 2 12 73 22
157 76 637 106 865 113 870 5 3 71 9 146 12 611 29 1301 219 1862 514 380 200
684 416 1019 723 l122 112 95 -92 c52 -51 98 -90 102 -86 4 5 -35 47 -85 96
-51 48 -93 91 -93 95 0 4 35 46 78 93 351 385 583 723 793 1157 258 534 411
1118 449 1718 6 88 11 162 13 163 2 2 90 13 749 94 136 16 260 30 275 31 51 1
11 8 -202 34 -115 14 -262 32 -325 39 -63 8 -198 25 -300 37 -102 12 -188 25
-193 28 -4 4 -12 77 -17 163 -57 899 -378 1770 -916 2483 -106 141 -193 245
-305 367 l-90 98 96 91 c67 65 93 95 85 103 -7 7 -38 -18 -105 -84 l-94 -93
-104 99 c-492 470 -1097 831 -1752 1045 -359 118 -734 190 -1150 220 -88 6
-160 12 -161 13 -1 0 -27 217 -58 481 -52 429 -72 575 -75 538z m49 -553 c16
-140 37 -309 45 -375 8 -66 26 -214 40 -330 51 -420 75 -622 90 -740 8 -66 26
-214 40 -330 38 -311 73 -600 95 -780 19 -151 114 -934 146 -1205 8 -69 23
-190 33 -270 11 -88 15 -149 9 -155 -26 -29 -534 -422 -540 -418 -5 2 -8 1105
-7 2451 0 1449 4 2439 9 2427 5 -11 23 -135 40 -275z m-195 -657 c-3 -21 -19
-150 -35 -288 -118 -987 -129 -1068 -143 -1077 -7 -4 -25 -8 -42 -8 -44 0
-237 -35 -362 -64 -120 -29 -191 -51 -336 -103 -54 -20 -100 -33 -103 -31 -2
3 -120 270 -260 594 -141 324 -263 605 -271 624 -8 19 -17 30 -19 25 -4 -9 63
-167 440 -1040 47 -109 86 -204 86 -210 -1 -5 -62 -39 -137 -75 -290 -138
-570 -329 -776 -527 l-68 -66 -67 64 c-91 88 -339 328 -562 545 -102 99 -227
220 -278 269 l-92 89 37 39 c190 196 530 459 823 636 553 333 1232 561 1855
621 61 5 126 12 145 13 19 2 65 5 103 5 l67 2 -5 -37z m555 23 c832 -77 1629
-385 2296 -887 140 -105 328 -266 417 -357 l69 -69 -314 -310 c-417 -412 -606
-595 -611 -591 -2 2 -20 -10 -41 -25 l-37 -29 -76 69 c-249 224 -486 386 -763
520 -74 36 -137 67 -139 69 -3 3 42 118 346 882 80 202 148 373 150 380 3 6 1
12 -4 12 -11 0 -10 3 -189 -450 -75 -190 -174 -442 -221 -560 -47 -118 -89
-225 -94 -237 l-8 -22 -83 31 c-204 76 -413 131 -618 162 -58 9 -119 19 -136
21 l-31 5 -12 98 c-66 538 -151 1251 -151 1274 0 27 2 28 48 28 26 0 117 -7
202 -14z m-3432 -1468 c86 -84 242 -236 347 -338 393 -383 453 -442 465 -465
11 -21 7 -28 -48 -86 -203 -215 -373 -462 -514 -746 -44 -90 -82 -163 -85
-163 -2 0 -102 39 -221 86 -1058 420 -1044 415 -1051 409 -8 -9 -71 17 584
-242 187 -74 414 -164 505 -200 91 -36 168 -68 172 -72 4 -4 -8 -47 -27 -98
-73 -193 -140 -463 -166 -667 -7 -54 -18 -100 -23 -102 -6 -2 -85 -12 -176
-23 -331 -40 -671 -82 -935 -115 -148 -18 -273 -30 -278 -26 -4 3 -3 73 3 156
47 668 249 1333 585 1925 87 152 271 422 386 564 105 131 305 355 316 355 3 0
76 -69 161 -152z m6313 54 c278 -291 532 -660 732 -1058 264 -526 431 -1151
463 -1732 l7 -123 -24 5 c-13 3 -118 17 -234 31 -115 13 -358 43 -540 65 -181
22 -391 48 -465 56 -74 9 -136 18 -138 19 -1 1 -11 62 -22 135 -26 175 -79
388 -135 552 -26 73 -47 142 -48 152 -2 17 41 38 258 132 143 61 422 182 620
267 197 85 361 160 363 166 2 6 -32 -4 -75 -23 -928 -401 -1173 -506 -1180
-506 -4 0 -25 40 -47 88 -122 275 -305 552 -541 817 l-60 68 490 483 c270 266
493 484 496 484 4 0 40 -35 80 -78z m-3611 -33 c0 -27 -40 -352 -44 -356 -1
-2 -43 -10 -92 -18 -126 -22 -303 -68 -433 -114 -72 -25 -113 -35 -118 -28
-24 40 -141 323 -135 329 16 16 245 92 387 128 127 32 202 47 375 73 54 9 60
7 60 -14z m935 -25 c228 -45 555 -148 555 -174 0 -5 -26 -76 -58 -157 -32 -82
-61 -156 -65 -165 -5 -15 -14 -14 -89 13 -151 56 -271 90 -429 121 l-156 31
-17 146 c-10 80 -20 166 -23 189 l-6 44 59 -7 c32 -4 136 -22 229 -41z m-1708
-341 l71 -167 -157 -77 c-219 -108 -426 -247 -604 -406 -33 -29 -63 -53 -68
-53 -10 0 -275 205 -284 219 -6 11 115 125 229 218 142 114 375 262 550 349
93 46 174 84 180 84 6 0 44 -75 83 -167z m2441 95 c254 -122 519 -303 731
-499 39 -36 71 -70 70 -75 0 -5 -64 -59 -142 -120 l-142 -111 -45 39 c-201
177 -379 299 -600 411 -85 44 -157 81 -159 83 -2 2 27 80 63 173 78 197 49
184 224 99z m-1718 -142 c0 -14 -9 -94 -19 -178 -11 -84 -23 -182 -26 -218 -4
-36 -11 -72 -15 -80 -5 -9 -36 -21 -71 -29 -53 -10 -225 -63 -280 -86 -13 -5
-21 4 -33 37 -16 40 -16 46 -2 73 20 38 20 78 1 116 -17 31 -69 69 -96 69 -18
0 -83 140 -71 152 15 15 284 99 392 122 113 25 198 43 213 45 4 1 7 -10 7 -23z
m901 -6 c187 -35 489 -133 489 -157 0 -11 -48 -141 -56 -151 -1 -2 -19 1 -40
8 -49 16 -104 0 -138 -41 -50 -59 -25 -161 45 -189 19 -7 35 -14 37 -15 7 -5
-19 -55 -29 -55 -7 0 -41 11 -75 25 -35 14 -120 41 -190 60 -70 19 -129 37
-131 39 -4 4 -63 467 -63 493 0 9 8 12 23 9 12 -3 70 -14 128 -26z m-1507
-217 c26 -64 27 -68 10 -78 -10 -5 -33 -24 -51 -41 -27 -26 -33 -40 -33 -73 0
-85 54 -137 134 -129 22 3 48 8 57 12 13 5 19 -1 28 -25 6 -18 11 -35 11 -39
0 -4 -60 -37 -132 -73 -143 -71 -245 -135 -377 -237 -46 -36 -89 -69 -95 -74
-8 -6 -60 29 -157 105 -80 63 -166 130 -192 149 -25 19 -47 38 -47 42 0 11
147 135 254 215 54 41 148 103 210 140 107 64 320 171 342 172 6 1 23 -29 38
-66z m2161 -6 c145 -72 284 -158 410 -252 123 -92 237 -193 233 -205 -3 -9
-357 -289 -374 -296 -7 -3 -49 25 -95 62 -110 89 -239 172 -374 241 -60 30
-112 57 -113 59 -2 1 -1 16 3 32 5 24 15 33 50 47 75 28 106 106 69 177 -18
35 -16 46 29 151 23 56 17 57 162 -16z m-3236 -381 l109 -140 -21 -26 c-12
-15 -59 -71 -105 -126 -139 -165 -316 -450 -378 -606 -11 -27 -22 -48 -27 -48
-12 0 -321 122 -331 131 -20 18 139 328 264 514 118 176 348 451 372 443 4 -2
57 -66 117 -142z m4315 67 c189 -206 378 -483 494 -724 59 -123 73 -162 64
-171 -4 -4 -80 -38 -168 -76 l-160 -68 -55 115 c-104 222 -236 426 -401 617
-43 51 -78 96 -78 100 0 22 215 272 234 273 5 1 36 -29 70 -66z m-3954 -283
c129 -101 336 -263 460 -361 402 -315 800 -627 1012 -792 l208 -162 0 -222 c0
-123 -1 -223 -3 -223 -1 0 -461 460 -1022 1022 -561 561 -991 999 -955 971 36
-27 171 -132 300 -233z m3751 263 c-5 -10 -70 -94 -143 -188 -74 -93 -226
-287 -338 -430 -112 -143 -258 -330 -325 -415 -384 -489 -743 -949 -760 -972
l-20 -27 -222 -1 c-123 0 -223 3 -223 7 0 7 2031 2043 2038 2043 1 0 -2 -8 -7
-17z m-2506 -80 c-4 -38 -9 -71 -11 -75 -2 -3 -19 -10 -37 -13 -184 -40 -470
-177 -654 -316 -47 -35 -91 -68 -98 -73 -9 -6 -29 3 -63 30 -28 21 -51 42 -52
46 0 10 153 127 245 188 87 56 308 170 331 170 8 0 14 -7 14 -15 0 -8 5 -15
11 -15 5 0 9 10 7 22 -3 20 6 26 62 46 60 22 224 70 244 71 4 1 5 -29 1 -66z
m1020 35 c61 -17 162 -51 218 -73 13 -6 17 -14 13 -31 -4 -13 -2 -24 3 -24 5
0 11 9 14 20 5 20 12 18 114 -33 59 -30 151 -83 203 -117 102 -67 230 -166
230 -178 0 -7 -95 -82 -104 -82 -2 0 -24 17 -48 37 -165 139 -491 305 -695
353 -57 13 -53 5 -68 118 -6 49 -14 48 120 10z m-1035 -147 c0 -6 -9 -83 -20
-173 -12 -90 -30 -237 -41 -328 -31 -264 -49 -393 -53 -398 -6 -6 0 -10 -355
267 l-312 245 28 22 c179 147 426 281 638 345 100 31 115 33 115 20z m1042
-17 c152 -48 340 -136 468 -219 53 -35 200 -144 200 -149 0 -2 -82 -68 -182
-147 -101 -79 -245 -192 -320 -251 -76 -60 -144 -111 -151 -114 -11 -4 -17 16
-26 83 -11 87 -75 620 -86 718 -4 28 -8 62 -11 78 -7 34 1 35 108 1z m-2360
-186 c74 -95 141 -182 148 -194 12 -19 7 -28 -50 -100 -91 -114 -194 -273
-252 -391 -29 -59 -56 -103 -65 -103 -7 0 -32 9 -53 20 -30 15 -40 27 -40 44
0 33 -43 82 -85 96 -35 12 -108 0 -120 -20 -10 -15 -38 -12 -91 11 -27 12 -50
23 -52 24 -1 1 19 47 45 101 61 129 159 295 245 414 74 103 214 270 227 270 5
0 69 -78 143 -172z m3764 120 c137 -146 295 -380 400 -592 41 -82 74 -153 74
-158 0 -5 -28 -22 -63 -37 -100 -45 -106 -46 -116 -19 -17 45 -49 63 -111 63
-48 0 -63 -4 -84 -24 -36 -34 -52 -90 -37 -132 11 -33 4 -48 -25 -49 -6 0 -41
60 -77 133 -77 154 -156 278 -251 395 -37 46 -66 88 -64 92 5 15 293 380 299
380 3 0 28 -24 55 -52z m-3502 -455 c20 -25 36 -50 36 -55 0 -5 -22 -36 -49
-71 -133 -170 -246 -385 -313 -593 l-43 -134 -35 -5 c-19 -3 -50 -8 -69 -11
l-34 -5 6 43 c6 42 37 144 79 261 19 53 24 58 45 52 27 -6 30 3 6 21 -17 12
-15 18 24 98 24 47 68 126 98 175 61 98 191 271 204 271 5 0 25 -21 45 -47z
m3149 -20 c86 -106 182 -261 244 -389 51 -106 55 -118 40 -129 -23 -17 -21
-25 6 -22 20 2 26 -10 63 -123 23 -69 44 -140 48 -159 6 -33 6 -33 -27 -28
-17 3 -50 8 -73 12 -40 6 -40 6 -58 73 -28 108 -112 310 -169 410 -47 82 -136
213 -199 294 l-21 27 39 50 c21 28 41 51 46 51 4 0 32 -30 61 -67z m-2843
-369 c135 -173 251 -322 258 -332 12 -18 -9 -21 -415 -70 -236 -29 -443 -55
-461 -58 -34 -5 -34 -5 -27 28 26 119 122 345 206 486 55 91 178 262 188 261
3 0 116 -142 251 -315z m2809 151 c70 -103 159 -270 204 -385 31 -79 72 -219
66 -225 -3 -2 -74 5 -159 15 -292 37 -730 90 -741 90 -19 0 -4 24 112 171 62
79 176 225 253 323 l140 179 29 -34 c15 -19 59 -79 96 -134z m-4249 24 c85
-34 158 -65 163 -69 4 -3 -4 -38 -19 -76 -62 -166 -100 -302 -133 -486 -10
-54 -20 -100 -22 -102 -6 -5 -370 -48 -374 -44 -5 6 16 151 40 271 43 217 153
567 179 567 6 0 81 -28 166 -61z m5499 33 c20 -38 93 -262 122 -373 28 -113
60 -279 74 -388 l7 -53 -48 6 c-27 3 -110 13 -184 22 -74 9 -138 19 -142 23
-4 3 -19 66 -33 138 -28 147 -66 284 -114 412 -17 47 -30 86 -28 87 5 5 322
143 329 143 4 1 12 -7 17 -17z m-5215 -147 c36 -15 37 -17 31 -58 -4 -23 -2
-54 4 -69 22 -59 93 -94 155 -77 32 9 78 51 88 80 3 9 16 8 49 -5 l46 -17 -48
-142 c-26 -77 -53 -169 -60 -203 l-12 -62 -81 -11 c-250 -33 -418 -52 -423
-47 -16 16 62 354 116 501 52 144 49 138 74 131 13 -3 40 -12 61 -21z m4863
-60 c34 -87 90 -286 112 -395 31 -157 32 -160 18 -160 -34 1 -490 60 -495 64
-3 3 -18 56 -34 116 -16 61 -40 140 -53 176 -14 37 -25 68 -25 70 0 3 11 9 25
14 19 7 33 5 58 -10 76 -47 185 3 187 86 0 12 6 26 13 32 19 15 151 71 162 68
5 -1 20 -29 32 -61z m-3328 -487 c49 -62 145 -185 214 -273 l126 -160 -192 -6
c-287 -9 -4725 -9 -4702 0 11 5 63 13 115 20 251 30 611 73 755 91 88 11 273
33 410 50 138 16 304 37 370 45 254 31 459 56 700 85 138 16 304 37 370 45 66
8 197 24 290 35 94 11 280 34 415 50 135 17 319 39 410 51 141 17 600 75 623
78 4 0 47 -50 96 -111z m6249 -443 c-4 -5 -376 -51 -1158 -145 -204 -25 -325
-39 -700 -85 -162 -20 -349 -42 -415 -50 -66 -8 -307 -37 -535 -65 -411 -50
-522 -64 -775 -94 -71 -9 -258 -32 -415 -51 -417 -52 -490 -59 -499 -49 -16
18 -407 519 -415 532 -6 9 488 12 2455 12 1354 0 2460 -2 2457 -5z m-5438 -22
c0 -11 -2013 -2023 -2023 -2023 -4 0 18 33 50 74 32 41 119 152 194 247 74 96
317 406 539 689 222 283 451 576 509 650 58 74 147 188 198 253 l94 117 219 0
c121 0 220 -3 220 -7z m1070 -1020 c564 -564 1007 -1013 985 -998 -33 24 -693
540 -1380 1079 -77 60 -251 197 -387 304 l-248 193 0 225 c0 123 1 224 3 224
1 0 463 -462 1027 -1027z m-5205 857 c138 -17 342 -42 455 -55 113 -14 266
-33 340 -41 74 -9 169 -21 210 -28 l75 -11 16 -117 c31 -217 76 -398 150 -606
22 -62 39 -118 37 -123 -4 -12 19 -1 -698 -311 -294 -126 -539 -234 -544 -239
-23 -22 30 -1 355 140 189 81 466 200 614 265 149 64 275 116 280 116 6 0 42
-67 82 -148 143 -294 329 -564 537 -779 l50 -53 -34 -37 c-19 -20 -237 -246
-485 -501 l-450 -465 -73 79 c-264 284 -480 574 -644 864 -354 625 -548 1276
-593 1993 l-6 97 38 -5 c21 -3 151 -19 288 -35z m8641 -87 c-14 -248 -59 -537
-126 -808 -173 -701 -520 -1356 -1011 -1910 -53 -60 -110 -122 -126 -137 l-28
-27 -260 251 c-478 463 -725 707 -725 717 0 5 35 47 77 93 205 222 369 464
504 741 39 81 76 147 82 147 6 0 72 -24 146 -54 112 -45 587 -233 1014 -403
48 -19 93 -33 100 -30 6 2 -117 54 -273 116 -755 300 -984 392 -987 395 -2 1
4 20 13 42 72 170 142 430 179 663 14 85 26 156 29 158 3 3 300 40 986 123 47
6 153 19 235 29 83 10 156 19 164 20 11 1 13 -21 7 -126z m-7317 -74 c91 -12
167 -22 169 -24 2 -2 14 -57 27 -122 32 -164 59 -264 106 -399 22 -63 39 -117
37 -118 -2 -3 -282 -125 -325 -143 -12 -5 -53 94 -96 232 -50 161 -100 397
-120 563 -4 39 -15 39 202 11z m5876 -26 c-30 -225 -90 -473 -160 -663 -25
-68 -47 -125 -49 -128 -3 -2 -82 26 -176 64 -139 55 -170 70 -164 83 57 134
129 386 160 558 l16 92 57 7 c31 3 97 12 146 19 50 7 109 13 133 14 l43 1 -6
-47z m-5432 -28 c307 -37 272 -25 287 -98 6 -34 30 -116 51 -181 21 -66 38
-120 37 -121 -11 -9 -69 -35 -79 -35 -6 0 -25 12 -42 26 -27 23 -38 26 -86 22
-72 -6 -111 -46 -111 -112 l0 -43 -62 -26 c-47 -21 -64 -24 -70 -15 -17 26
-98 287 -122 393 -34 149 -42 215 -26 215 6 0 107 -11 223 -25z m5007 -73
c-32 -179 -129 -505 -158 -534 -6 -6 -41 3 -91 23 l-81 32 0 44 c0 60 -21 96
-69 117 -54 25 -101 15 -145 -30 -22 -23 -39 -32 -50 -28 -9 3 -16 10 -16 15
0 4 22 75 50 157 27 81 52 167 56 190 4 23 12 46 18 50 11 7 404 59 467 61
l36 1 -17 -98z m-4544 18 c40 0 36 7 90 -160 64 -200 151 -367 280 -541 41
-55 74 -102 74 -105 0 -10 -72 -99 -80 -99 -13 0 -107 120 -177 227 -35 53
-91 152 -125 219 l-61 122 24 19 24 20 -27 -6 c-25 -6 -28 -2 -51 62 -34 90
-67 204 -67 232 0 20 4 22 31 16 17 -3 47 -6 65 -6z m3964 7 c0 -14 -48 -173
-76 -254 -34 -97 -37 -103 -60 -97 -15 4 -24 2 -24 -5 0 -6 7 -11 15 -11 8 0
15 -7 15 -17 0 -23 -101 -212 -166 -310 -60 -91 -163 -223 -173 -223 -7 1 -81
95 -81 104 0 3 28 43 63 88 143 187 249 395 317 623 l27 90 44 6 c52 7 99 10
99 6z m-3406 -77 c231 -28 421 -52 422 -53 2 -1 -43 -61 -99 -133 -326 -418
-411 -524 -418 -524 -20 0 -160 199 -227 322 -61 112 -172 397 -172 441 0 5
15 7 38 4 20 -4 226 -29 456 -57z m3236 47 c0 -36 -79 -246 -135 -362 -85
-173 -240 -403 -265 -393 -10 4 -519 652 -515 656 2 3 432 56 705 87 74 9 140
18 145 20 25 9 65 4 65 -8z m-1860 -2469 c0 -1348 -2 -2449 -5 -2446 -6 6 -32
210 -99 768 -20 162 -43 349 -51 415 -8 66 -24 194 -35 285 -69 570 -82 677
-95 785 -8 66 -26 215 -40 330 -14 116 -37 300 -50 410 -13 110 -34 277 -45
370 -11 94 -32 262 -45 375 -34 278 -62 506 -76 622 -6 53 -10 101 -7 108 4
12 528 428 541 429 4 1 7 -1102 7 -2451z m-1938 1982 c78 -155 151 -269 247
-390 34 -41 61 -79 61 -85 0 -11 -287 -378 -299 -383 -10 -4 -148 159 -230
272 -96 133 -157 235 -235 396 -74 151 -75 144 10 176 l43 16 31 -30 c84 -84
215 -28 215 91 0 46 1 49 40 66 22 10 41 17 42 17 1 -1 35 -67 75 -146z m3959
100 c5 0 9 -11 9 -24 0 -121 133 -183 219 -102 l26 24 79 -32 c44 -18 81 -37
83 -43 6 -16 -137 -288 -209 -398 -101 -155 -298 -399 -310 -385 -22 24 -298
382 -298 386 0 3 28 40 62 83 89 110 191 270 251 393 34 71 57 106 65 103 8
-3 18 -5 23 -5z m-2541 -571 c27 -229 50 -419 50 -423 0 -8 -35 0 -129 31
-115 36 -236 90 -354 157 -108 60 -278 181 -284 201 -2 6 106 96 239 200 133
105 280 220 328 257 l85 67 7 -37 c4 -20 30 -224 58 -453z m1272 355 c95 -74
244 -192 331 -260 l158 -125 -43 -36 c-146 -122 -399 -258 -601 -324 -70 -23
-129 -40 -132 -38 -2 3 0 36 5 74 5 39 25 203 45 365 46 389 58 480 61 480 1
0 80 -61 176 -136z m-3163 -110 c114 -229 254 -435 413 -610 l50 -54 -33 -42
c-123 -157 -193 -243 -199 -246 -10 -4 -157 160 -241 268 -85 109 -203 289
-269 410 -70 129 -140 283 -131 292 8 9 325 147 328 144 2 -1 39 -74 82 -162z
m5063 74 c114 -46 158 -67 158 -79 0 -33 -161 -337 -248 -469 -99 -152 -220
-307 -321 -413 l-68 -70 -109 137 c-60 76 -110 143 -112 150 -1 7 25 43 59 82
150 169 286 371 391 582 39 78 76 142 82 142 6 0 81 -28 168 -62z m-3868 -401
c179 -146 432 -276 691 -354 l60 -18 8 -63 c5 -35 6 -66 2 -70 -9 -9 -152 29
-260 70 -82 30 -90 36 -88 58 3 24 2 24 -12 6 -14 -19 -15 -19 -57 -1 -69 30
-217 114 -294 165 -89 61 -199 149 -199 160 0 10 86 80 99 80 5 0 27 -15 50
-33z m2529 -3 c26 -20 47 -40 47 -44 0 -8 -102 -90 -175 -141 -81 -57 -196
-124 -279 -163 -116 -55 -126 -58 -132 -41 -9 23 -24 18 -21 -7 2 -19 -11 -26
-114 -59 -64 -21 -135 -41 -157 -45 l-41 -6 5 38 c14 107 12 103 57 115 230
60 553 224 707 358 19 16 40 30 46 31 6 0 32 -16 57 -36z m-2673 -165 c111
-89 230 -165 370 -238 69 -35 126 -65 128 -66 1 -1 -3 -16 -9 -33 -10 -29 -14
-32 -55 -32 -25 0 -58 -7 -74 -15 -77 -40 -80 -170 -5 -216 l23 -14 -28 -70
c-22 -55 -32 -69 -47 -67 -35 7 -293 145 -395 211 -93 61 -234 170 -343 264
l-39 35 29 25 c90 75 351 276 360 276 6 1 44 -26 85 -60z m2998 -89 c100 -79
181 -148 179 -154 -7 -21 -213 -188 -327 -265 -184 -124 -464 -271 -481 -253
-4 4 -21 40 -38 81 l-31 73 25 29 c69 83 13 209 -92 209 -22 0 -36 6 -43 19
-13 25 -13 41 0 41 6 0 65 27 130 59 135 67 280 160 390 250 41 33 82 59 90
57 9 -1 98 -67 198 -146z m-3420 -238 c178 -158 355 -278 578 -389 l151 -76
-52 -131 c-78 -196 -83 -206 -97 -206 -23 0 -319 154 -423 220 -170 107 -437
317 -510 399 l-20 23 25 18 c14 10 79 61 145 114 66 52 122 95 123 96 2 0 38
-31 80 -68z m3795 -56 c70 -55 127 -103 127 -107 0 -26 -289 -264 -451 -372
-190 -126 -503 -287 -521 -269 -10 10 -138 312 -138 325 0 7 45 31 99 55 195
86 467 264 650 425 62 55 77 64 91 54 8 -7 73 -57 143 -111z m-2550 -27 c79
-19 98 -28 102 -44 6 -25 55 -447 55 -469 0 -21 -19 -20 -143 5 -167 34 -463
124 -491 149 -5 5 4 40 19 79 26 67 30 71 59 71 104 0 163 135 91 210 -25 26
-26 29 -12 63 l15 35 104 -38 c56 -21 147 -48 201 -61z m1348 60 c10 -19 7
-25 -20 -46 -36 -28 -52 -78 -41 -128 14 -64 65 -99 132 -93 l40 4 28 -63 c48
-105 49 -98 -27 -127 -105 -40 -262 -85 -391 -111 -125 -26 -162 -30 -162 -17
0 9 44 376 55 457 l5 40 98 23 c53 13 131 36 172 52 92 35 97 35 111 9z
m-2918 -235 c213 -202 560 -433 808 -541 49 -21 89 -43 89 -50 0 -8 -374 -957
-497 -1260 -3 -7 -1 -13 5 -13 5 0 50 102 100 228 409 1031 414 1044 431 1038
9 -3 54 -19 101 -36 208 -77 443 -135 645 -161 50 -6 93 -14 98 -18 9 -9 7 4
132 -1026 19 -159 37 -310 41 -333 l6 -44 -99 7 c-632 41 -1181 186 -1728 455
-424 209 -744 428 -1099 755 l-87 81 373 384 c478 494 584 600 598 600 7 0 44
-30 83 -66z m4780 -411 c271 -262 493 -480 495 -484 3 -8 -180 -180 -283 -266
-577 -481 -1246 -805 -1975 -958 -215 -45 -405 -71 -672 -90 l-88 -7 0 33 c0
17 15 158 34 313 19 155 51 416 71 581 20 165 41 341 48 390 l12 90 65 8 c202
25 479 91 659 157 60 22 114 40 120 40 7 0 20 -19 31 -42 10 -24 127 -295 260
-603 247 -573 269 -620 270 -596 0 8 -119 290 -265 627 -146 337 -265 616
-265 621 1 4 81 47 179 95 264 130 505 294 721 493 45 41 84 75 87 75 2 0 226
-215 496 -477z m-3593 156 c133 -47 343 -103 451 -120 42 -6 82 -14 88 -18 11
-7 59 -366 50 -375 -9 -9 -260 34 -404 69 -121 29 -418 125 -432 139 -5 4 125
346 131 346 2 0 54 -18 116 -41z m1999 -136 c40 -91 68 -170 64 -174 -18 -16
-287 -103 -418 -134 -134 -33 -395 -78 -403 -71 -4 4 39 369 44 375 2 2 47 11
101 21 54 10 143 29 199 43 97 25 302 92 312 102 18 18 38 -14 101 -162z"/>
<path d="M7680 12077 c-8 -8 9 -286 19 -327 7 -24 8 0 4 75 -7 153 -17 258
-23 252z"/>
<path d="M7533 12030 c4 -19 11 -93 18 -165 6 -71 16 -137 21 -145 6 -10 7 2
4 35 -3 28 -11 104 -17 170 -7 66 -16 125 -22 130 -6 7 -7 -2 -4 -25z"/>
<path d="M7390 12039 c0 -17 39 -295 46 -328 3 -13 7 -21 10 -19 6 6 -42 347
-50 355 -3 4 -6 0 -6 -8z"/>
<path d="M7250 12012 c0 -11 9 -67 20 -124 10 -57 22 -127 26 -156 4 -29 11
-55 15 -58 12 -7 13 -9 -21 180 -28 159 -40 207 -40 158z"/>
<path d="M7110 11988 c0 -28 68 -339 75 -346 10 -9 -1 55 -37 218 -27 127 -38
163 -38 128z"/>
<path d="M6970 11954 c0 -17 79 -326 84 -332 12 -11 5 26 -33 176 -34 135 -51
186 -51 156z"/>
<path d="M6830 11925 c0 -22 92 -330 102 -340 7 -7 8 -4 4 10 -3 11 -24 85
-47 165 -38 135 -58 190 -59 165z"/>
<path d="M6690 11887 c0 -18 113 -350 117 -341 4 13 -95 325 -108 339 -5 5 -9
6 -9 2z"/>
<path d="M6560 11834 c0 -9 111 -325 117 -333 2 -2 5 -2 8 1 5 4 -111 327
-121 337 -2 2 -4 0 -4 -5z"/>
<path d="M6422 11781 c45 -121 134 -329 137 -320 4 14 -122 329 -132 329 -5 0
-7 -4 -5 -9z"/>
<path d="M6292 11721 c21 -59 144 -321 150 -321 4 0 -4 26 -18 58 -14 31 -46
105 -72 164 -26 59 -51 108 -55 108 -5 0 -7 -4 -5 -9z"/>
<path d="M6160 11667 c0 -14 155 -317 162 -317 4 0 -26 68 -67 152 -67 137
-95 185 -95 165z"/>
<path d="M6031 11604 c11 -33 165 -314 172 -314 11 0 -139 289 -160 310 -9 8
-14 10 -12 4z"/>
<path d="M5910 11533 c0 -15 175 -314 178 -304 3 9 -165 311 -174 311 -2 0 -4
-3 -4 -7z"/>
<path d="M5790 11455 c0 -11 169 -283 181 -291 17 -10 8 6 -77 143 -88 140
-104 164 -104 148z"/>
<path d="M5670 11375 c0 -12 195 -296 197 -288 3 9 -183 293 -192 293 -3 0 -5
-2 -5 -5z"/>
<path d="M5550 11295 c0 -11 204 -285 213 -285 9 0 -7 23 -136 198 -62 84 -77
101 -77 87z"/>
<path d="M5440 11204 c0 -8 197 -261 210 -269 24 -15 4 15 -96 141 -99 126
-114 143 -114 128z"/>
<path d="M5430 10988 c62 -73 117 -135 123 -137 15 -5 8 3 -116 152 -55 64
-103 117 -109 117 -5 0 41 -60 102 -132z"/>
<path d="M5236 10998 c17 -18 72 -79 124 -136 51 -56 95 -100 98 -98 6 7 -229
266 -242 266 -5 0 4 -15 20 -32z"/>
<path d="M5219 10811 c117 -125 141 -148 141 -136 0 12 -231 255 -242 255 -6
0 40 -53 101 -119z"/>
<path d="M8236 11933 c-4 -76 -10 -155 -13 -175 -3 -22 -1 -38 4 -38 6 0 13
52 17 118 3 64 9 143 12 175 4 35 3 57 -3 57 -6 0 -13 -59 -17 -137z"/>
<path d="M8390 12059 c-1 -2 -9 -80 -19 -174 -17 -156 -18 -186 -7 -174 7 8
38 341 32 347 -3 3 -6 3 -6 1z"/>
<path d="M8531 12040 c-1 -17 -38 -280 -46 -322 -2 -16 -1 -28 3 -28 10 0 56
333 49 351 -4 11 -6 11 -6 -1z"/>
<path d="M8670 12012 c0 -9 -48 -287 -55 -319 -3 -13 -1 -23 3 -23 5 0 12 19
15 43 4 23 17 102 30 175 14 72 20 132 16 132 -5 0 -9 -4 -9 -8z"/>
<path d="M8816 11992 c-9 -14 -75 -336 -70 -341 7 -8 10 2 46 174 34 161 38
189 24 167z"/>
<path d="M8911 11794 c-23 -92 -39 -169 -37 -172 7 -7 10 2 55 181 21 86 35
157 31 157 -4 0 -26 -75 -49 -166z"/>
<path d="M9052 11788 c-42 -144 -63 -236 -43 -191 17 39 93 313 89 324 -2 6
-22 -54 -46 -133z"/>
<path d="M9175 11720 c-31 -95 -54 -174 -51 -177 7 -7 14 10 71 190 26 82 45
150 42 153 -3 3 -31 -72 -62 -166z"/>
<path d="M9326 11732 c-21 -59 -49 -135 -62 -169 -13 -35 -19 -63 -14 -63 4 0
15 19 23 43 8 23 35 99 61 170 25 70 42 127 38 127 -4 0 -24 -48 -46 -108z"/>
<path d="M9497 11783 c-13 -22 -127 -314 -127 -325 1 -21 14 8 80 170 34 85
59 156 57 159 -3 2 -7 1 -10 -4z"/>
<path d="M9616 11699 c-8 -19 -39 -90 -70 -158 -53 -118 -67 -157 -48 -135 16
18 144 316 138 321 -3 3 -12 -9 -20 -28z"/>
<path d="M9685 11515 c-42 -87 -73 -160 -70 -163 3 -3 39 66 81 152 41 87 73
161 70 164 -3 3 -40 -66 -81 -153z"/>
<path d="M9844 11523 c-26 -48 -65 -121 -86 -160 -22 -40 -35 -73 -30 -73 11
0 176 309 169 316 -3 3 -26 -34 -53 -83z"/>
<path d="M9927 11387 c-48 -83 -86 -155 -84 -160 1 -5 42 59 91 142 48 83 86
155 84 160 -2 5 -42 -59 -91 -142z"/>
<path d="M10055 11333 c-97 -153 -108 -173 -98 -173 7 0 70 96 171 262 13 21
19 38 15 38 -5 0 -44 -57 -88 -127z"/>
<path d="M10155 11235 c-54 -80 -95 -148 -92 -151 3 -3 51 62 106 145 56 83
98 151 93 151 -5 0 -53 -65 -107 -145z"/>
<path d="M10270 11159 c-56 -77 -100 -143 -97 -145 2 -3 42 46 88 108 45 62
94 128 107 146 13 17 20 32 14 32 -6 0 -56 -63 -112 -141z"/>
<path d="M10388 11088 c-114 -146 -126 -162 -111 -157 19 7 228 278 220 285
-3 3 -52 -55 -109 -128z"/>
<path d="M10538 11053 c-36 -43 -88 -106 -117 -140 -29 -35 -48 -63 -43 -63 6
0 54 53 108 117 115 137 128 153 121 159 -2 3 -34 -30 -69 -73z"/>
<path d="M10600 10913 c-110 -122 -139 -158 -124 -152 6 2 55 54 109 114 131
144 140 155 129 155 -5 0 -56 -53 -114 -117z"/>
<path d="M10695 10813 c-66 -69 -122 -131 -124 -137 -2 -6 54 46 124 115 70
70 126 131 124 137 -2 6 -58 -46 -124 -115z"/>
<path d="M5132 10704 c70 -70 130 -126 133 -122 6 6 -230 241 -248 247 -7 2
45 -54 115 -125z"/>
<path d="M4916 10718 c3 -7 46 -49 96 -93 136 -121 168 -147 168 -138 0 8
-230 220 -256 236 -9 5 -12 4 -8 -5z"/>
<path d="M4821 10613 c6 -16 259 -226 265 -220 3 2 -50 52 -118 109 -129 109
-153 128 -147 111z"/>
<path d="M4731 10502 c2 -6 60 -54 129 -108 69 -53 131 -101 138 -107 7 -6 12
-6 12 0 0 5 -57 54 -127 109 -139 109 -157 122 -152 106z"/>
<path d="M4640 10393 c0 -5 53 -47 118 -94 143 -105 172 -124 172 -113 -1 5
-42 38 -92 74 -50 36 -115 82 -145 103 -29 21 -53 35 -53 30z"/>
<path d="M4560 10273 c0 -11 290 -206 296 -200 6 5 1 9 -146 109 -149 101
-150 102 -150 91z"/>
<path d="M4480 10153 c1 -11 300 -197 306 -190 3 3 -55 43 -129 90 -154 98
-177 111 -177 100z"/>
<path d="M4410 10031 c0 -11 299 -185 306 -178 3 2 -14 16 -38 30 -24 14 -94
54 -155 91 -62 36 -113 61 -113 57z"/>
<path d="M4340 9903 c1 -11 303 -171 313 -165 7 3 -298 172 -310 172 -2 0 -3
-3 -3 -7z"/>
<path d="M4270 9775 c0 -7 310 -155 324 -154 14 0 -295 158 -311 158 -7 1 -13
-1 -13 -4z"/>
<path d="M4216 9641 c16 -15 315 -143 321 -138 3 3 -10 12 -28 20 -19 9 -90
40 -158 71 -119 53 -157 67 -135 47z"/>
<path d="M4166 9511 c11 -12 303 -131 318 -131 19 1 -20 19 -170 80 -154 63
-164 66 -148 51z"/>
<path d="M4105 9382 c11 -12 328 -131 334 -126 9 8 -10 16 -155 69 -82 29
-158 57 -169 61 -14 5 -17 4 -10 -4z"/>
<path d="M4066 9241 c5 -5 72 -29 149 -54 194 -62 192 -61 180 -49 -9 9 -313
112 -331 112 -4 0 -4 -4 2 -9z"/>
<path d="M4020 9102 c52 -20 340 -98 340 -91 0 5 -19 13 -42 20 -24 6 -96 26
-161 45 -65 19 -126 34 -135 33 -14 0 -14 -2 -2 -7z"/>
<path d="M3980 8970 c0 -9 340 -94 347 -86 5 5 -6 8 -209 59 -76 19 -138 31
-138 27z"/>
<path d="M3950 8830 c0 -6 3 -10 8 -10 4 0 81 -16 171 -35 90 -19 166 -33 169
-30 7 7 -6 10 -173 45 -82 17 -156 33 -162 35 -7 2 -13 0 -13 -5z"/>
<path d="M3920 8689 c0 -5 3 -9 8 -9 10 0 290 -48 320 -55 12 -3 22 -1 22 3 0
5 -19 12 -42 16 -24 3 -103 17 -175 30 -73 13 -133 19 -133 15z"/>
<path d="M3902 8545 c2 -3 69 -14 149 -25 79 -11 156 -22 172 -25 15 -2 27 -1
27 3 0 4 -71 18 -157 30 -159 22 -200 26 -191 17z"/>
<path d="M3882 8405 c5 -5 133 -21 311 -39 26 -3 47 -2 47 2 0 4 -75 15 -167
25 -182 19 -199 20 -191 12z"/>
<path d="M3879 8262 c7 -5 66 -13 130 -16 64 -4 137 -9 164 -12 27 -3 47 -2
47 4 0 5 -53 12 -117 16 -65 3 -145 9 -178 12 -40 4 -55 2 -46 -4z"/>
<path d="M10783 10705 c-70 -69 -123 -125 -117 -123 18 5 257 238 251 244 -3
3 -63 -51 -134 -121z"/>
<path d="M10884 10613 c-71 -64 -131 -121 -133 -127 -7 -18 8 -5 248 211 14
12 23 25 20 27 -3 3 -63 -47 -135 -111z"/>
<path d="M10973 10509 c-73 -61 -133 -115 -133 -121 0 -6 24 9 53 34 28 24 91
77 140 117 48 40 87 75 87 77 0 13 -29 -8 -147 -107z"/>
<path d="M11084 10422 c-60 -48 -123 -97 -139 -110 -15 -12 -26 -25 -23 -27 5
-5 232 167 273 206 48 47 -10 11 -111 -69z"/>
<path d="M11255 10376 c-16 -13 -81 -60 -143 -106 -62 -45 -111 -85 -108 -87
6 -7 286 196 286 208 0 12 0 12 -35 -15z"/>
<path d="M11217 10179 c-82 -55 -146 -103 -143 -106 7 -7 296 187 296 199 0
11 12 18 -153 -93z"/>
<path d="M11300 10069 c-159 -99 -155 -97 -149 -103 6 -6 293 172 297 184 2 6
2 10 0 10 -1 0 -68 -41 -148 -91z"/>
<path d="M11357 9943 c-81 -47 -145 -88 -143 -91 3 -2 67 30 143 73 164 93
183 105 163 105 -8 -1 -81 -40 -163 -87z"/>
<path d="M11435 9829 c-159 -85 -161 -87 -154 -93 4 -5 301 153 315 167 20 20
-24 -1 -161 -74z"/>
<path d="M11491 9704 c-85 -41 -152 -77 -148 -80 6 -6 317 141 317 150 0 11
-16 5 -169 -70z"/>
<path d="M11565 9587 c-77 -35 -149 -67 -159 -70 -10 -4 -16 -10 -13 -13 6 -7
305 121 322 137 20 19 -14 7 -150 -54z"/>
<path d="M11596 9452 c-88 -36 -155 -67 -149 -69 12 -4 311 114 328 129 21 19
-28 2 -179 -60z"/>
<path d="M11653 9327 c-90 -33 -163 -64 -163 -68 0 -5 28 2 63 15 34 12 110
40 170 61 59 22 107 43 107 47 0 11 1 12 -177 -55z"/>
<path d="M11709 9201 c-177 -58 -183 -60 -177 -67 6 -5 348 104 348 111 0 10
-28 2 -171 -44z"/>
<path d="M11726 9062 c-88 -25 -154 -48 -148 -50 11 -3 332 85 341 94 12 12
-50 -2 -193 -44z"/>
<path d="M11777 8934 c-154 -38 -203 -54 -166 -54 30 1 353 86 344 91 -6 3
-86 -13 -178 -37z"/>
<path d="M11808 8801 c-93 -20 -168 -40 -168 -44 0 -5 8 -6 18 -3 9 2 88 19
175 38 86 18 157 36 157 40 0 10 15 12 -182 -31z"/>
<path d="M11833 8666 c-95 -17 -173 -34 -173 -39 0 -4 10 -5 23 -2 12 2 90 16
172 31 141 24 164 30 154 37 -2 2 -82 -11 -176 -27z"/>
<path d="M11823 8527 c-79 -12 -143 -25 -143 -30 0 -5 12 -6 28 -3 15 3 95 15
177 27 83 11 152 23 154 25 9 8 -79 1 -216 -19z"/>
<path d="M11838 8392 c-76 -9 -138 -19 -138 -24 0 -4 19 -5 43 -2 23 2 100 11
171 19 71 8 131 17 134 20 8 8 -57 4 -210 -13z"/>
<path d="M11863 8257 c-89 -5 -153 -13 -153 -19 0 -6 17 -8 43 -5 23 4 96 9
162 13 66 4 129 10 140 15 25 10 18 9 -192 -4z"/>
<path d="M4003 7707 c-73 -5 -133 -14 -133 -19 0 -6 14 -8 33 -5 17 3 85 9
149 13 130 7 224 22 133 21 -27 0 -110 -5 -182 -10z"/>
<path d="M4038 7571 c-81 -9 -150 -20 -155 -25 -4 -4 10 -6 32 -3 22 4 96 11
165 18 69 7 134 16 145 20 29 11 -12 9 -187 -10z"/>
<path d="M4094 7440 c-155 -22 -197 -30 -191 -36 7 -7 319 36 337 47 21 12 0
10 -146 -11z"/>
<path d="M4110 7304 c-69 -12 -140 -26 -159 -29 -18 -4 -31 -9 -28 -12 7 -7
317 47 337 58 24 13 -10 10 -150 -17z"/>
<path d="M4112 7165 c-134 -28 -190 -45 -155 -45 20 0 304 61 326 70 43 17
-14 9 -171 -25z"/>
<path d="M4137 7030 c-135 -35 -181 -50 -148 -50 16 0 335 80 340 86 12 11
-58 -2 -192 -36z"/>
<path d="M4215 6909 c-71 -22 -147 -44 -169 -50 -21 -6 -35 -13 -32 -16 8 -8
346 89 346 99 0 11 4 11 -145 -33z"/>
<path d="M4220 6768 c-159 -52 -167 -55 -158 -63 4 -5 326 100 336 110 12 12
-32 0 -178 -47z"/>
<path d="M4266 6637 c-94 -33 -164 -63 -158 -65 10 -3 316 103 331 115 21 16
-30 2 -173 -50z"/>
<path d="M4323 6512 c-90 -36 -163 -69 -163 -74 0 -4 17 -1 38 7 20 9 93 39
162 67 69 27 127 52 129 54 17 16 -25 3 -166 -54z"/>
<path d="M4440 6415 c-200 -89 -233 -105 -228 -111 5 -4 315 129 327 141 16
17 -16 7 -99 -30z"/>
<path d="M4416 6254 c-81 -41 -146 -77 -144 -80 3 -2 79 32 169 76 90 44 155
79 144 79 -11 0 -87 -34 -169 -75z"/>
<path d="M4495 6139 c-158 -85 -161 -87 -154 -93 4 -5 297 149 314 165 24 23
-21 3 -160 -72z"/>
<path d="M4547 6012 c-81 -48 -143 -88 -138 -90 8 -3 293 158 310 174 2 2 -2
4 -10 3 -8 0 -80 -40 -162 -87z"/>
<path d="M4626 5898 c-81 -51 -144 -94 -138 -96 8 -2 272 156 297 179 30 29
-28 -2 -159 -83z"/>
<path d="M4704 5785 c-76 -52 -141 -100 -143 -106 -2 -6 65 34 148 90 83 57
151 104 151 107 0 12 -29 -5 -156 -91z"/>
<path d="M4790 5678 c-145 -106 -159 -118 -144 -118 8 0 257 179 278 200 5 5
8 11 5 13 -2 2 -65 -41 -139 -95z"/>
<path d="M4867 5564 c-75 -59 -137 -111 -137 -116 0 -5 19 5 43 23 34 27 221
174 236 186 2 2 2 5 -1 8 -2 3 -66 -43 -141 -101z"/>
<path d="M4955 5460 c-71 -60 -132 -115 -134 -122 -5 -14 6 -6 157 121 62 51
112 97 112 102 0 5 -1 9 -2 9 -2 0 -61 -50 -133 -110z"/>
<path d="M5044 5355 c-71 -63 -131 -121 -133 -128 -4 -14 6 -5 149 123 58 51
109 97 114 102 5 4 7 10 4 13 -3 3 -64 -46 -134 -110z"/>
<path d="M5132 5249 c-68 -67 -121 -124 -117 -127 3 -3 63 51 133 121 70 70
122 127 117 127 -6 0 -65 -55 -133 -121z"/>
<path d="M11731 7711 c15 -5 82 -12 150 -15 68 -4 136 -9 152 -12 15 -3 27 -1
27 4 0 5 -46 12 -102 16 -247 16 -253 16 -227 7z"/>
<path d="M11710 7582 c8 -5 71 -15 140 -21 69 -7 143 -14 165 -17 26 -4 37 -3
30 4 -5 5 -66 15 -135 21 -69 7 -145 15 -170 17 -30 4 -40 2 -30 -4z"/>
<path d="M11695 7450 c26 -11 335 -53 342 -47 6 7 -18 11 -202 37 -153 22
-170 23 -140 10z"/>
<path d="M11670 7321 c21 -12 330 -64 337 -58 7 8 -10 11 -189 42 -161 27
-170 28 -148 16z"/>
<path d="M11632 7195 c6 -7 321 -75 344 -75 38 0 1 11 -156 44 -162 35 -199
41 -188 31z"/>
<path d="M11612 7065 c9 -10 320 -86 337 -83 9 2 -59 23 -151 46 -162 41 -197
48 -186 37z"/>
<path d="M11570 6943 c0 -10 339 -107 346 -100 3 3 -25 15 -63 26 -37 11 -115
34 -172 50 -116 35 -111 34 -111 24z"/>
<path d="M11530 6816 c0 -3 64 -26 143 -52 185 -60 197 -64 197 -55 0 7 -308
111 -329 111 -6 0 -11 -2 -11 -4z"/>
<path d="M11490 6694 c0 -11 328 -129 336 -122 3 4 -157 66 -323 126 -7 2 -13
0 -13 -4z"/>
<path d="M11446 6571 c-5 -8 325 -143 332 -136 3 3 3 6 1 8 -15 12 -330 133
-333 128z"/>
<path d="M11391 6446 c11 -11 323 -145 327 -141 8 7 10 6 -155 78 -132 58
-188 78 -172 63z"/>
<path d="M11340 6332 c0 -11 311 -164 319 -156 3 4 0 9 -8 12 -8 3 -81 38
-163 78 -81 41 -148 70 -148 66z"/>
<path d="M11280 6213 c1 -11 311 -176 318 -168 7 7 15 2 -153 91 -178 94 -165
88 -165 77z"/>
<path d="M11211 6096 c21 -18 305 -176 313 -173 11 4 -287 177 -305 177 -7 0
-10 -2 -8 -4z"/>
<path d="M11160 5977 c28 -26 290 -187 290 -178 0 5 -65 49 -145 100 -138 86
-177 108 -145 78z"/>
<path d="M11075 5873 c23 -23 295 -200 295 -192 0 9 -259 186 -288 196 -11 4
-14 3 -7 -4z"/>
<path d="M11000 5772 c0 -12 280 -215 287 -208 4 4 -55 50 -234 180 -29 21
-53 33 -53 28z"/>
<path d="M10924 5661 c12 -19 278 -222 284 -217 3 3 3 7 1 9 -2 2 -65 51 -141
110 -126 99 -158 121 -144 98z"/>
<path d="M10841 5564 c2 -6 54 -53 114 -104 61 -51 120 -102 133 -113 12 -11
22 -16 22 -10 0 6 -53 55 -117 109 -149 125 -157 131 -152 118z"/>
<path d="M10815 5404 c131 -122 205 -186 205 -176 0 5 -35 40 -77 78 -43 38
-101 90 -129 117 -28 26 -55 47 -60 47 -5 -1 23 -30 61 -66z"/>
<path d="M10785 5245 c71 -68 132 -121 135 -118 6 6 -242 242 -255 242 -5 0
48 -56 120 -124z"/>
<path d="M5254 5177 c-114 -117 -154 -161 -138 -156 16 6 248 249 242 254 -2
2 -49 -42 -104 -98z"/>
<path d="M5355 5088 c-122 -136 -148 -168 -138 -168 8 0 205 214 231 252 7 10
10 18 5 18 -4 -1 -48 -46 -98 -102z"/>
<path d="M5454 4993 c-132 -157 -137 -163 -126 -163 12 0 236 269 229 276 -2
3 -49 -48 -103 -113z"/>
<path d="M5594 4952 c-28 -37 -77 -100 -108 -139 -32 -40 -53 -73 -48 -73 5 0
54 57 109 128 109 139 118 152 106 152 -4 -1 -31 -31 -59 -68z"/>
<path d="M5653 4804 c-95 -131 -131 -190 -79 -129 53 61 196 265 186 265 -5 0
-53 -61 -107 -136z"/>
<path d="M5764 4726 c-54 -80 -95 -148 -92 -151 3 -3 49 60 103 140 54 80 96
147 93 151 -3 3 -50 -60 -104 -140z"/>
<path d="M5887 4662 c-84 -134 -104 -172 -94 -172 6 0 173 268 182 293 16 41
-7 8 -88 -121z"/>
<path d="M5997 4580 c-48 -82 -87 -152 -87 -155 0 -19 26 19 85 123 37 64 76
132 87 150 11 17 16 32 11 32 -5 0 -48 -67 -96 -150z"/>
<path d="M6150 4573 c-29 -54 -68 -126 -87 -160 -19 -35 -30 -63 -25 -63 11 0
176 309 169 316 -3 3 -28 -39 -57 -93z"/>
<path d="M6236 4443 c-42 -86 -74 -158 -72 -161 3 -2 41 68 85 157 44 88 76
161 71 161 -4 0 -43 -70 -84 -157z"/>
<path d="M6361 4388 c-39 -88 -69 -163 -66 -166 2 -3 19 26 36 64 82 180 117
264 110 264 -4 0 -40 -73 -80 -162z"/>
<path d="M6510 4393 c-23 -60 -53 -134 -66 -165 -12 -32 -19 -58 -15 -58 4 0
30 57 59 128 28 70 58 144 67 165 8 20 11 37 7 37 -5 0 -28 -48 -52 -107z"/>
<path d="M6617 4290 c-32 -89 -57 -166 -55 -172 2 -6 29 58 60 143 31 85 59
162 63 172 4 9 3 17 -1 17 -5 0 -35 -72 -67 -160z"/>
<path d="M6750 4253 c-28 -87 -53 -164 -55 -170 -3 -7 -1 -13 3 -13 9 0 116
330 109 337 -3 2 -28 -67 -57 -154z"/>
<path d="M6879 4213 c-54 -193 -53 -191 -41 -178 5 6 28 78 52 160 24 83 45
156 47 163 3 6 1 12 -4 12 -5 0 -29 -71 -54 -157z"/>
<path d="M7011 4172 c-24 -95 -41 -175 -38 -178 6 -6 9 5 57 195 17 68 29 131
28 140 -2 9 -23 -62 -47 -157z"/>
<path d="M7177 4293 c-16 -57 -68 -325 -64 -329 7 -7 10 6 47 184 18 84 30
156 27 158 -3 3 -7 -3 -10 -13z"/>
<path d="M7306 4269 c-7 -23 -56 -313 -55 -329 0 -8 5 -4 10 10 12 36 60 322
54 328 -2 3 -7 -1 -9 -9z"/>
<path d="M7436 4249 c-9 -28 -47 -332 -42 -336 7 -8 13 25 36 191 11 82 18
151 15 154 -2 3 -7 -1 -9 -9z"/>
<path d="M7566 4229 c-3 -13 -10 -78 -16 -144 -6 -66 -13 -138 -16 -160 -4
-26 -3 -37 4 -30 10 11 46 344 38 352 -3 3 -7 -5 -10 -18z"/>
<path d="M7699 4239 c-4 -23 -25 -355 -22 -358 1 -2 5 -2 7 0 7 7 27 351 22
357 -4 3 -6 3 -7 1z"/>
<path d="M10570 5272 c0 -4 57 -63 126 -132 69 -69 125 -120 123 -113 -4 12
-237 253 -245 253 -2 0 -4 -3 -4 -8z"/>
<path d="M10491 5163 c14 -16 68 -75 119 -133 89 -100 110 -120 110 -106 0 11
-235 266 -244 266 -6 0 2 -12 15 -27z"/>
<path d="M10380 5100 c0 -6 46 -66 103 -132 56 -67 105 -126 109 -132 4 -6 10
-8 13 -4 3 3 -46 67 -110 142 -63 76 -115 132 -115 126z"/>
<path d="M10276 5009 c6 -8 53 -68 104 -134 110 -142 108 -140 115 -133 6 6
-202 272 -218 277 -9 3 -9 1 -1 -10z"/>
<path d="M10170 4934 c0 -3 19 -31 43 -62 24 -31 69 -94 102 -139 32 -46 62
-83 67 -83 5 0 -8 24 -29 53 -21 30 -67 95 -103 145 -58 81 -80 105 -80 86z"/>
<path d="M10060 4867 c0 -5 42 -70 93 -144 50 -75 95 -141 99 -147 4 -6 9 -8
12 -5 4 3 -35 66 -85 140 -91 134 -119 170 -119 156z"/>
<path d="M9950 4795 c0 -6 170 -283 187 -304 1 -2 5 -2 8 0 5 5 -165 283 -185
303 -5 5 -10 6 -10 1z"/>
<path d="M9844 4717 c10 -30 168 -298 173 -293 5 5 -137 260 -163 292 -14 17
-15 17 -10 1z"/>
<path d="M9771 4568 c28 -51 64 -121 82 -155 17 -35 35 -63 40 -63 11 0 16
-11 -76 163 -43 81 -82 147 -87 147 -5 0 14 -42 41 -92z"/>
<path d="M9611 4604 c-1 -19 152 -330 156 -317 2 6 -32 82 -76 170 -44 87 -80
153 -80 147z"/>
<path d="M9490 4546 c0 -4 25 -65 56 -135 31 -69 63 -141 71 -160 8 -18 17
-31 20 -27 3 3 -25 74 -62 158 -62 141 -85 185 -85 164z"/>
<path d="M9370 4493 c0 -6 25 -73 55 -148 31 -75 60 -148 66 -162 5 -14 12
-23 16 -20 3 4 -23 77 -57 164 -61 151 -80 191 -80 166z"/>
<path d="M9264 4388 c13 -35 41 -110 62 -168 41 -114 42 -116 49 -109 2 3 -23
79 -55 169 -33 91 -60 166 -60 167 0 2 -4 3 -10 3 -5 0 1 -28 14 -62z"/>
<path d="M9125 4390 c62 -206 115 -352 115 -316 0 18 -103 322 -112 331 -7 7
-8 2 -3 -15z"/>
<path d="M9044 4193 c28 -98 52 -170 54 -162 2 12 -35 155 -84 322 -3 9 -9 17
-13 17 -4 0 15 -80 43 -177z"/>
<path d="M8870 4334 c-1 -21 84 -344 91 -344 7 0 -75 337 -85 347 -3 4 -6 2
-6 -3z"/>
<path d="M8743 4290 c3 -14 20 -94 38 -177 17 -84 35 -153 39 -153 10 0 -60
333 -72 345 -7 7 -9 2 -5 -15z"/>
<path d="M8614 4258 c7 -32 43 -235 51 -285 4 -24 10 -43 14 -43 5 0 -5 73
-20 163 -16 89 -29 168 -29 175 0 6 -5 12 -10 12 -6 0 -8 -10 -6 -22z"/>
<path d="M8485 4233 c3 -16 14 -93 25 -172 19 -133 30 -183 30 -135 0 45 -44
334 -52 334 -4 0 -5 -12 -3 -27z"/>
<path d="M8223 4194 c4 -27 10 -109 13 -181 4 -76 11 -133 17 -133 6 0 7 23 4
58 -4 31 -9 110 -13 175 -4 65 -11 120 -17 124 -6 4 -8 -11 -4 -43z"/>
<path d="M8355 4213 c3 -16 9 -77 15 -138 13 -136 20 -188 27 -181 8 8 -29
346 -38 346 -5 0 -6 -12 -4 -27z"/>
<path d="M3660 12218 c74 -73 176 -172 227 -222 51 -49 95 -87 98 -84 3 3 -77
86 -177 185 -201 198 -261 253 -274 253 -5 0 52 -60 126 -132z"/>
<path d="M12151 12113 c-150 -146 -209 -209 -201 -217 7 -7 72 51 221 200 116
116 207 214 201 218 -5 3 -105 -87 -221 -201z"/>
<path d="M4453 12006 c-28 -29 -28 -33 -2 -32 12 1 25 -6 30 -14 25 -42 80
-172 75 -177 -6 -7 -195 77 -203 90 -2 4 1 14 7 22 30 36 -5 10 -59 -45 -46
-46 -55 -59 -36 -54 13 3 41 -2 67 -14 39 -17 46 -25 70 -86 l27 -68 -25 6
c-14 4 -64 24 -111 46 -72 34 -85 43 -80 60 3 11 4 20 2 20 -6 0 -105 -100
-105 -105 0 -3 8 -5 19 -5 10 0 93 -32 185 -71 93 -39 170 -68 173 -65 3 3
-15 56 -40 118 -25 62 -44 114 -42 116 1 1 53 -20 115 -48 62 -28 114 -49 116
-47 2 2 -30 79 -71 170 -41 92 -75 176 -75 187 0 26 -10 25 -37 -4z"/>
<path d="M11619 11903 c16 -31 9 -42 -107 -157 -88 -87 -103 -98 -126 -92 -14
3 -26 5 -26 3 0 -1 20 -23 45 -47 l45 -44 -12 32 c-13 32 -12 32 79 124 51 51
94 90 97 87 3 -3 -1 -59 -8 -124 -8 -66 -17 -154 -21 -195 l-6 -75 124 124
c110 109 128 123 152 119 26 -5 26 -5 -11 33 -43 44 -49 48 -34 18 10 -18 3
-29 -59 -92 l-71 -72 1 35 c0 19 6 82 13 140 l14 105 -50 50 c-28 28 -45 40
-39 28z"/>
<path d="M4043 11594 c-18 -19 -33 -36 -33 -38 0 -1 12 -1 28 1 22 4 38 -7 92
-61 75 -77 82 -73 -108 -52 l-112 12 -45 -42 c-48 -44 -58 -61 -25 -44 28 15
40 6 154 -108 90 -92 98 -102 92 -129 -7 -27 -6 -26 38 17 25 24 46 45 46 46
0 1 -14 -3 -30 -9 -30 -11 -32 -10 -122 80 -51 51 -90 94 -88 96 3 3 84 -4
180 -14 96 -10 184 -19 195 -19 14 0 -17 36 -104 124 -107 107 -123 127 -119
150 7 33 0 32 -39 -10z"/>
<path d="M11908 11618 c24 -24 10 -45 -97 -152 -96 -96 -112 -108 -136 -103
-23 4 -8 -15 83 -105 l110 -111 48 38 c27 21 40 35 29 32 -11 -3 -30 -8 -41
-11 -42 -12 -134 46 -134 84 0 9 22 37 48 63 37 37 50 45 60 35 15 -15 16 -70
0 -86 -6 -6 -9 -14 -7 -17 3 -2 34 25 70 62 35 36 55 62 44 58 -44 -18 -85
-18 -91 0 -5 12 8 32 44 68 l51 51 25 -23 c14 -13 32 -38 41 -57 14 -30 14
-37 0 -71 l-16 -38 41 40 40 39 -107 108 c-59 59 -110 108 -112 108 -3 0 0 -5
7 -12z"/>
<path d="M1460 8511 c0 -61 4 -101 10 -101 6 0 10 10 10 23 0 31 18 47 55 47
36 0 439 -150 428 -160 -8 -7 -389 -153 -431 -165 -29 -8 -52 10 -52 41 0 12
-4 26 -10 29 -7 4 -10 -61 -10 -187 0 -128 4 -188 10 -178 5 8 10 22 10 31 0
27 43 58 131 93 80 33 86 33 119 19 19 -8 86 -35 148 -60 62 -26 109 -50 105
-54 -5 -4 -104 -46 -222 -94 -232 -93 -273 -101 -279 -55 -2 14 -8 29 -13 35
-5 5 -9 -61 -9 -168 0 -97 2 -177 5 -177 3 0 10 11 15 24 5 14 19 32 32 40 19
12 510 214 698 287 25 9 46 23 48 31 2 9 -78 47 -248 118 -183 77 -246 108
-236 115 7 6 120 51 250 100 166 63 236 94 234 104 -2 9 -146 69 -367 152
-200 76 -374 146 -387 154 -13 9 -24 22 -24 30 0 7 -4 17 -10 20 -6 4 -10 -30
-10 -94z"/>
<path d="M13970 8040 l0 -340 23 -5 c12 -2 60 -9 107 -15 47 -6 93 -13 103
-16 38 -12 14 17 -32 36 -61 27 -116 82 -136 139 -9 26 -15 77 -15 126 0 116
-2 115 188 115 l152 0 -7 -32 c-15 -79 -43 -107 -135 -128 -26 -7 -48 -16 -48
-21 0 -5 90 -9 205 -9 208 0 252 9 152 30 -77 16 -117 52 -124 113 l-6 47 162
0 161 0 0 -92 c-1 -142 -41 -209 -144 -238 -25 -7 -46 -17 -46 -21 0 -5 52 -9
115 -9 l115 0 -1 333 c0 300 -2 328 -14 287 -8 -25 -22 -50 -32 -57 -13 -10
-96 -13 -343 -13 -367 0 -365 0 -376 71 -17 103 -24 10 -24 -301z"/>
<path d="M11864 4673 c0 -10 -16 -26 -42 -41 -55 -31 -82 -74 -82 -130 0 -32
6 -49 24 -67 36 -36 71 -41 145 -20 99 27 125 29 144 10 24 -24 21 -42 -12
-76 -31 -31 -75 -38 -112 -18 -41 21 -36 3 9 -36 25 -22 43 -35 40 -30 -10 16
2 28 45 47 40 19 77 69 77 106 0 31 -26 79 -49 92 -28 14 -90 12 -147 -5 -92
-28 -134 -17 -134 36 0 62 93 99 160 64 41 -21 37 -8 -12 42 -46 47 -57 52
-54 26z"/>
<path d="M4005 4539 c-87 -38 -167 -69 -177 -69 -26 0 -22 -12 13 -46 l31 -29
-7 26 c-4 16 -1 29 7 36 11 9 176 83 185 83 9 0 -1 -27 -43 -115 -41 -85 -49
-95 -68 -89 -14 4 -1 -14 39 -55 33 -34 60 -61 60 -61 1 0 0 13 -3 29 -2 16 4
44 15 66 17 32 30 42 83 62 35 13 65 21 67 19 5 -4 -75 -185 -90 -204 -6 -7
-17 -10 -24 -7 -16 6 32 -58 66 -89 21 -19 21 -19 21 2 0 12 34 97 75 189 41
92 74 171 73 174 -2 4 -54 -13 -117 -37 -63 -24 -116 -43 -118 -40 -2 2 13 39
33 82 64 138 66 144 52 143 -7 0 -85 -31 -173 -70z"/>
<path d="M11551 4366 c-111 -113 -112 -115 -65 -171 l25 -30 -7 37 c-3 21 -3
49 0 62 8 33 54 86 75 86 9 0 39 -23 66 -50 41 -42 47 -52 35 -60 -21 -13 -64
-12 -78 2 -6 6 -14 9 -17 7 -2 -3 25 -34 61 -70 62 -61 65 -62 48 -27 -15 31
-15 42 -5 65 l12 27 57 -58 57 -57 -37 -34 c-39 -37 -81 -45 -119 -25 -30 17
-22 -3 16 -40 l35 -34 113 112 c71 72 102 109 84 101 -28 -13 -30 -11 -145
104 -106 106 -116 119 -104 137 27 43 -9 15 -107 -84z"/>
<path d="M4430 4263 c-30 -11 -60 -47 -66 -78 -3 -19 3 -64 17 -113 26 -95 19
-132 -26 -132 -61 0 -91 75 -60 155 5 13 -7 6 -34 -20 -38 -36 -40 -40 -21
-47 10 -4 22 -19 26 -32 3 -14 22 -39 40 -56 74 -64 174 -22 174 73 0 24 -7
64 -15 87 -23 64 -20 107 9 125 68 45 135 -70 91 -155 -21 -40 -12 -38 41 12
49 46 54 58 24 58 -13 0 -24 10 -31 28 -27 71 -108 117 -169 95z"/>
<path d="M11940 4041 c0 -15 438 -432 444 -422 3 5 -11 24 -32 41 -20 18 -119
113 -219 211 -99 99 -184 179 -187 179 -3 0 -6 -4 -6 -9z"/>
<path d="M3802 3773 c-121 -125 -218 -230 -216 -232 3 -3 50 40 105 95 152
150 342 354 337 360 -3 2 -105 -98 -226 -223z"/>
<path d="M7982 2171 c-132 -45 -197 -165 -161 -296 17 -63 95 -130 237 -204
170 -88 212 -143 165 -211 -26 -37 -44 -48 -91 -56 -100 -15 -203 61 -241 179
-7 20 -17 37 -22 37 -10 0 -11 -152 -1 -220 7 -44 7 -44 19 -17 16 34 32 34
117 2 86 -32 155 -33 221 -1 88 42 135 112 135 203 -1 105 -61 178 -210 254
-188 95 -238 156 -196 238 47 91 190 92 289 2 39 -35 97 -139 97 -173 0 -10 5
-18 10 -18 6 0 10 57 10 150 0 135 -7 177 -24 135 -13 -35 -49 -38 -135 -11
-96 30 -146 32 -219 7z"/>
</g>
</svg>
